<?xml version="1.0" encoding="UTF-8" standalone="no"?>
<svg
   xmlns:dc="http://purl.org/dc/elements/1.1/"
   xmlns:cc="http://creativecommons.org/ns#"
   xmlns:rdf="http://www.w3.org/1999/02/22-rdf-syntax-ns#"
   xmlns:svg="http://www.w3.org/2000/svg"
   xmlns="http://www.w3.org/2000/svg"
   xmlns:xlink="http://www.w3.org/1999/xlink"
   xmlns:sodipodi="http://sodipodi.sourceforge.net/DTD/sodipodi-0.dtd"
   xmlns:inkscape="http://www.inkscape.org/namespaces/inkscape"
   id="6b5bbc3a-7ba8-40c4-8b79-fdc85beb38a1"
   data-name="Layer 1"
   width="941.77063"
   height="782.74524"
   viewBox="0 0 941.77064 782.74523"
   version="1.1"
   sodipodi:docname="erro-generico.svg"
   inkscape:version="0.92.3 (2405546, 2018-03-11)">
  <metadata
     id="metadata205">
    <rdf:RDF>
      <cc:Work
         rdf:about="">
        <dc:format>image/svg+xml</dc:format>
        <dc:type
           rdf:resource="http://purl.org/dc/dcmitype/StillImage" />
        <dc:title>warning</dc:title>
      </cc:Work>
    </rdf:RDF>
  </metadata>
  <sodipodi:namedview
     pagecolor="#ffffff"
     bordercolor="#666666"
     borderopacity="1"
     objecttolerance="10"
     gridtolerance="10"
     guidetolerance="10"
     inkscape:pageopacity="0"
     inkscape:pageshadow="2"
     inkscape:window-width="1366"
     inkscape:window-height="714"
     id="namedview203"
     showgrid="false"
     fit-margin-top="0"
     fit-margin-left="0"
     fit-margin-right="0"
     fit-margin-bottom="0"
     inkscape:zoom="0.2004218"
     inkscape:cx="624.59896"
     inkscape:cy="195.8104"
     inkscape:window-x="0"
     inkscape:window-y="0"
     inkscape:window-maximized="1"
     inkscape:current-layer="6b5bbc3a-7ba8-40c4-8b79-fdc85beb38a1" />
  <defs
     id="defs10">
    <linearGradient
       id="fb7ae7e0-1793-4d3b-a6c6-7b51ed07a232"
       x1="86.900002"
       y1="457.32001"
       x2="402.79999"
       y2="457.32001"
       gradientUnits="userSpaceOnUse">
      <stop
         offset="0"
         stop-color="gray"
         stop-opacity="0.25"
         id="stop2" />
      <stop
         offset="0.54"
         stop-color="gray"
         stop-opacity="0.12"
         id="stop4" />
      <stop
         offset="1"
         stop-color="gray"
         stop-opacity="0.1"
         id="stop6" />
    </linearGradient>
    <linearGradient
       id="26387a05-323e-43c3-b271-53af00551daf"
       x1="3013.29"
       y1="358.28"
       x2="3255.1001"
       y2="358.28"
       gradientTransform="matrix(-1,0,0,1,3342,0)"
       xlink:href="#fb7ae7e0-1793-4d3b-a6c6-7b51ed07a232" />
  </defs>
  <title
     id="title12">warning</title>
  <ellipse
     cx="438.52686"
     cy="391.37262"
     rx="438.52686"
     ry="391.37262"
     id="ellipse14"
     style="opacity:0.1;fill:#6c63ff;stroke-width:0.94007641" />
  <ellipse
     cx="164.19063"
     cy="704.26678"
     rx="66.900002"
     ry="13.82"
     id="ellipse18"
     style="opacity:0.1;fill:#6c63ff" />
  <ellipse
     cx="621.32062"
     cy="651.0968"
     rx="66.900002"
     ry="13.82"
     id="ellipse20"
     style="opacity:0.1;fill:#6c63ff" />
  <ellipse
     cx="262.00714"
     cy="612.47339"
     rx="241.09349"
     ry="40.843399"
     id="ellipse22"
     style="opacity:0.1;fill:#6c63ff;stroke-width:2.21613646" />
  <ellipse
     cx="714.86066"
     cy="543.6568"
     rx="226.91"
     ry="35.540001"
     id="ellipse24"
     style="opacity:0.1;fill:#6c63ff" />
  <path
     d="m 86.79937,611.63125 h 361.54051 a 20.255488,20.255488 0 0 0 17.7291,-29.85136 L 285.38736,246.07953 a 20.233327,20.233327 0 0 0 -35.63547,0 L 68.98163,581.77989 a 20.255488,20.255488 0 0 0 17.81774,29.85136 z m 203.77375,-61.34266 h -46.00699 v -45.98483 h 46.00699 z m 0,-76.65616 H 244.56613 V 381.6406 h 46.00699 z"
     id="path50"
     inkscape:connector-curvature="0"
     style="fill:#ff7d35;fill-opacity:1;stroke-width:2.21613646" />
  <path
     d="m 86.79937,611.63125 h 361.54051 a 20.255488,20.255488 0 0 0 17.7291,-29.85136 L 285.38736,246.07953 a 20.233327,20.233327 0 0 0 -35.63547,0 L 68.98163,581.77989 a 20.255488,20.255488 0 0 0 17.81774,29.85136 z m 203.77375,-61.34266 h -46.00699 v -45.98483 h 46.00699 z m 0,-76.65616 H 244.56613 V 381.6406 h 46.00699 z"
     id="path52"
     inkscape:connector-curvature="0"
     style="opacity:0.1;stroke-width:2.21613646" />
  <path
     d="m 86.79937,622.71193 h 361.54051 a 20.255488,20.255488 0 0 0 17.7291,-29.85136 L 285.38736,257.16021 a 20.233327,20.233327 0 0 0 -35.63547,0 L 68.98163,592.86057 a 20.255488,20.255488 0 0 0 17.81774,29.85136 z m 203.77375,-61.34266 h -46.00699 v -45.98483 h 46.00699 z m 0,-76.65616 h -46.00699 v -91.99183 h 46.00699 z"
     id="path54"
     inkscape:connector-curvature="0"
     style="fill:#ff7d35;fill-opacity:1;stroke-width:2.21613646" />
  <path
     d="m 604.84063,446.21678 c 0,0 -23.2,30.53 -42.45,30.78 -19.25,0.25 -30.55,12.86 -21.41,20.74 9.14,7.88 108.74,-4.5 108.74,-4.5 0,0 0.94,-37.52 -7.69,-43 -8.63,-5.48 -37.19,-4.02 -37.19,-4.02 z"
     id="path154"
     inkscape:connector-curvature="0"
     style="fill:#444176" />
  <path
     d="m 854.29063,482.86678 c 0,0 3.55,24.18 -7.42,40.67 -10.97,16.49 19.82,22.85 19.82,22.85 0,0 22.37,6.23 24,-15.87 1.63,-22.1 1.1,-39 -1,-40.8 -2.1,-1.8 -3.85,-14.23 -3.85,-14.23 z"
     id="path156"
     inkscape:connector-curvature="0"
     style="fill:#444176" />
  <path
     d="m 503.09063,528.53678 c 0,0 -0.81,-78.21 76.58,-110 l 17.97,-34.19 8.62,-21 a 51.1,51.1 0 0 1 36.09,-30.46 l 13.94,-3.13 4.31,-18.16 a 51.08,51.08 0 0 1 40.81,-38.54 142.91,142.91 0 0 1 25.7,-2.4 22.12,22.12 0 0 1 18.79,11 v 0 c 0,0 73.32,-0.81 76.57,39.11 0,0 7.34,36.65 17.93,43.17 0,0 17.92,-4.07 35.84,22 l 19.55,66.8 c 0,0 51.32,48.06 35.84,92 0,0 -21.18,30.14 -128.71,9.77 0,0 -114.86,35 -176,-13 -0.01,0.06 -101.83,19.61 -123.83,-12.97 z"
     id="path158"
     inkscape:connector-curvature="0"
     style="fill:#a8a8a8" />
  <path
     d="m 554.41063,516.31678 c 0,0 16.3,-22.81 15.48,-39.11 -0.82,-16.3 3.84,-56 3.84,-56"
     stroke-miterlimit="10"
     id="path160"
     inkscape:connector-curvature="0"
     style="opacity:0.1;fill:none;stroke:#000000;stroke-miterlimit:10" />
  <path
     d="m 613.88063,455.21678 c 0,0 16.29,-30.14 14.66,-46.43 0,0 17.11,-31 30.14,-28.52"
     stroke-miterlimit="10"
     id="path162"
     inkscape:connector-curvature="0"
     style="opacity:0.1;fill:none;stroke:#000000;stroke-miterlimit:10" />
  <path
     d="m 703.49063,369.67678 c 0,0 44.8,-16.29 47.25,-29.32"
     stroke-miterlimit="10"
     id="path164"
     inkscape:connector-curvature="0"
     style="opacity:0.1;fill:none;stroke:#000000;stroke-miterlimit:10" />
  <path
     d="m 719.78063,407.15678 c 0,0 47.25,-21.18 47.25,-26.89 h 23.61 c 0,0 34.22,44.81 30.15,64.36"
     stroke-miterlimit="10"
     id="path166"
     inkscape:connector-curvature="0"
     style="opacity:0.1;fill:none;stroke:#000000;stroke-miterlimit:10" />
  <path
     d="m 775.18063,439.73678 c 0,0 -45.62,-3.26 -61.92,9.78 -16.3,13.04 -45.62,19.55 -45.62,19.55 0,0 -17.11,36.66 -23.63,43.17 -6.52,6.51 -17.11,29.33 -17.11,29.33"
     stroke-miterlimit="10"
     id="path168"
     inkscape:connector-curvature="0"
     style="opacity:0.1;fill:none;stroke:#000000;stroke-miterlimit:10" />
  <path
     d="m 775.18063,482.91678 c 0,0 4.88,17.1 11.4,26.88 6.52,9.78 16.29,44.8 16.29,44.8"
     stroke-miterlimit="10"
     id="path170"
     inkscape:connector-curvature="0"
     style="opacity:0.1;fill:none;stroke:#000000;stroke-miterlimit:10" />
  <path
     d="m 851.75063,532.60678 c 0,0 10.34,28.77 19.43,29.05"
     stroke-miterlimit="10"
     id="path172"
     inkscape:connector-curvature="0"
     style="opacity:0.1;fill:none;stroke:#000000;stroke-miterlimit:10" />
  <path
     d="m 784.02063,409.11678 c 0,0 26.86,7.26 38.09,24.85 11.23,17.59 45.53,33.54 45.53,33.54"
     stroke-miterlimit="10"
     id="path174"
     inkscape:connector-curvature="0"
     style="opacity:0.1;fill:none;stroke:#000000;stroke-miterlimit:10" />
  <path
     d="m 795.54063,322.45678 c 0,0 0,37.47 10.59,37.47 10.59,0 34.22,4.07 34.22,4.07"
     stroke-miterlimit="10"
     id="path176"
     inkscape:connector-curvature="0"
     style="opacity:0.1;fill:none;stroke:#000000;stroke-miterlimit:10" />
  <path
     d="m 743.64063,277.95678 c 0,0 -2.71,64.73 -16.56,81.49"
     stroke-miterlimit="10"
     id="path178"
     inkscape:connector-curvature="0"
     style="opacity:0.1;fill:none;stroke:#000000;stroke-miterlimit:10" />
  <g
     id="g186"
     style="opacity:0.05"
     transform="translate(-90.47937,-64.86322)">
    <path
       d="m 1068.47,550.5 -19.55,-66.8 c -17.92,-26.07 -35.84,-22 -35.84,-22 -10.59,-6.52 -17.92,-43.18 -17.92,-43.18 -3.26,-39.92 -76.58,-39.1 -76.58,-39.1 v 0 a 22.12,22.12 0 0 0 -18.83,-11 c -3.46,0 -7,0.11 -10.54,0.4 q 3,0.3 5.75,0.85 l 5.7,9.78 c 0,0 73.31,-0.82 76.57,39.1 0,0 7.34,36.66 17.93,43.18 0,0 17.92,-4.08 35.84,22 l 19.55,66.8 c 0,0 51.32,48.06 35.84,92 0,0 -10.45,14.87 -53.92,16.67 58.61,2.15 71.84,-16.67 71.84,-16.67 15.48,-43.97 -35.84,-92.03 -35.84,-92.03 z"
       transform="translate(-83.88,-33.68)"
       id="path180"
       inkscape:connector-curvature="0" />
    <path
       d="M 781.72,639.29 A 380.38,380.38 0 0 1 729.53,645 c 20.41,0.78 41.64,-1.43 55.32,-3.31 -1.06,-0.81 -2.1,-1.59 -3.13,-2.4 z"
       transform="translate(-83.88,-33.68)"
       id="path182"
       inkscape:connector-curvature="0" />
    <path
       d="m 957.68,652.33 a 334.57,334.57 0 0 1 -76.92,12.16 c 37.55,1.36 73.12,-6.47 87.78,-10.23 -3.54,-0.59 -7.13,-1.26 -10.86,-1.93 z"
       transform="translate(-83.88,-33.68)"
       id="path184"
       inkscape:connector-curvature="0" />
  </g>
  <path
     d="m 132.37063,680.84678 c 0,0 22.41,-0.69 29.16,-5.5 6.75,-4.81 34.46,-10.55 36.14,-2.84 1.68,7.71 33.67,38.35 8.37,38.56 -25.3,0.21 -58.77,-3.94 -65.51,-8.05 -6.74,-4.11 -8.16,-22.17 -8.16,-22.17 z"
     id="path188"
     inkscape:connector-curvature="0"
     style="fill:#a8a8a8" />
  <path
     d="m 206.50063,708.37678 c -25.3,0.21 -58.78,-3.94 -65.52,-8 -5.13,-3.13 -7.18,-14.35 -7.86,-19.52 h -0.75 c 0,0 1.42,18.07 8.16,22.17 6.74,4.1 40.22,8.25 65.51,8.05 7.31,-0.06 9.83,-2.66 9.69,-6.51 -1.01,2.32 -3.8,3.77 -9.23,3.81 z"
     id="path190"
     inkscape:connector-curvature="0"
     style="opacity:0.2" />
  <path
     d="m 678.71063,624.64678 c 0,0 -26.39,-5.28 -33.42,-12.32 -7.03,-7.04 -38.7,-19.34 -42.22,-10.55 -3.52,8.79 -47.49,38.7 -17.59,44 29.9,5.3 70.36,7 79.16,3.52 8.8,-3.48 14.07,-24.65 14.07,-24.65 z"
     id="path192"
     inkscape:connector-curvature="0"
     style="fill:#a8a8a8" />
  <path
     d="m 585.48063,642.45678 c 29.91,5.27 70.36,7 79.16,3.51 6.69,-2.68 11.35,-15.55 13.19,-21.54 l 0.88,0.19 c 0,0 -5.28,21.1 -14.07,24.62 -8.79,3.52 -49.25,1.76 -79.16,-3.52 -8.63,-1.52 -11.1,-5.1 -10.17,-9.62 0.74,2.98 3.75,5.25 10.17,6.36 z"
     id="path194"
     inkscape:connector-curvature="0"
     style="opacity:0.2" />
  <path
     d="m 426.02063,49.98678 h -6.28 a 4.4,4.4 0 0 0 0,-8.8 h -50.88 a 4.4,4.4 0 0 0 0,8.8 h 6.28 a 4.4,4.4 0 0 0 0,8.79 h -8.79 a 4.4,4.4 0 0 0 0,8.8 h 50.88 a 4.4,4.4 0 0 0 0,-8.8 h 8.79 a 4.4,4.4 0 1 0 0,-8.79 z"
     id="path196"
     inkscape:connector-curvature="0"
     style="opacity:0.1;fill:#6c63ff" />
  <path
     d="m 623.64063,204.79678 h -6.28 a 4.4,4.4 0 0 0 0,-8.79 h -50.93 a 4.4,4.4 0 1 0 0,8.79 h 6.28 a 4.4,4.4 0 0 0 0,8.79 h -8.79 a 4.4,4.4 0 1 0 0,8.8 h 50.87 a 4.4,4.4 0 0 0 0,-8.8 h 8.85 a 4.4,4.4 0 1 0 0,-8.79 z"
     id="path198"
     inkscape:connector-curvature="0"
     style="opacity:0.1;fill:#6c63ff" />
  <path
     d="m 330.81063,176.15678 h -6.28 a 4.4,4.4 0 1 0 0,-8.79 h -50.89 a 4.4,4.4 0 1 0 0,8.79 h 6.28 a 4.4,4.4 0 1 0 0,8.79 h -8.8 a 4.4,4.4 0 0 0 0,8.8 h 50.88 a 4.4,4.4 0 0 0 0,-8.8 h 8.79 a 4.4,4.4 0 1 0 0,-8.79 z"
     id="path200"
     inkscape:connector-curvature="0"
     style="opacity:0.1;fill:#6c63ff" />
</svg>
