<?xml version="1.0" encoding="UTF-8" standalone="no"?>
<svg
   xmlns:dc="http://purl.org/dc/elements/1.1/"
   xmlns:cc="http://creativecommons.org/ns#"
   xmlns:rdf="http://www.w3.org/1999/02/22-rdf-syntax-ns#"
   xmlns:svg="http://www.w3.org/2000/svg"
   xmlns="http://www.w3.org/2000/svg"
   xmlns:sodipodi="http://sodipodi.sourceforge.net/DTD/sodipodi-0.dtd"
   xmlns:inkscape="http://www.inkscape.org/namespaces/inkscape"
   id="b7da5827-4560-4d63-9360-f6e9beb837fe"
   data-name="Layer 1"
   width="800.39551"
   height="425.68875"
   viewBox="0 0 800.3955 425.68875"
   version="1.1"
   sodipodi:docname="parametros-busca.svg"
   inkscape:version="0.92.3 (2405546, 2018-03-11)">
  <metadata
     id="metadata145">
    <rdf:RDF>
      <cc:Work
         rdf:about="">
        <dc:format>image/svg+xml</dc:format>
        <dc:type
           rdf:resource="http://purl.org/dc/dcmitype/StillImage" />
        <dc:title>searching</dc:title>
      </cc:Work>
    </rdf:RDF>
  </metadata>
  <defs
     id="defs143" />
  <sodipodi:namedview
     pagecolor="#ffffff"
     bordercolor="#666666"
     borderopacity="1"
     objecttolerance="10"
     gridtolerance="10"
     guidetolerance="10"
     inkscape:pageopacity="0"
     inkscape:pageshadow="2"
     inkscape:window-width="1366"
     inkscape:window-height="714"
     id="namedview141"
     showgrid="false"
     fit-margin-top="0"
     fit-margin-left="0"
     fit-margin-right="0"
     fit-margin-bottom="0"
     inkscape:zoom="0.29591917"
     inkscape:cx="225.90814"
     inkscape:cy="-13.763976"
     inkscape:window-x="0"
     inkscape:window-y="0"
     inkscape:window-maximized="1"
     inkscape:current-layer="b7da5827-4560-4d63-9360-f6e9beb837fe" />
  <title
     id="title2">searching</title>
  <path
     d="m 709.21432,247.46268 v 0 a 46.83994,46.83994 0 0 1 27.35248,19.86961 l 3.27083,5.06568 0.16459,0.20953 57.3851,16.79138 a 4.18288,4.18288 0 0 1 2.86079,5.11516 l -4.45513,16.335 a 4.18288,4.18288 0 0 1 -5.16148,2.92785 l -57.3995,-16.04387 -10e-4,0.002 -5.76486,2.1795 a 51.51527,51.51527 0 0 1 -33.12186,1.12567 v 0 z"
     id="path48"
     style="fill:#112d38;fill-opacity:1"
     inkscape:connector-curvature="0" />
  <ellipse
     cx="-66.828392"
     cy="814.90308"
     rx="3.50423"
     ry="6.5704198"
     transform="rotate(-73.69006)"
     id="ellipse50"
     style="fill:#ff7d35;fill-opacity:1" />
  <circle
     cx="766.716"
     cy="294.13977"
     r="2.4091599"
     id="circle52"
     style="fill:#112d38;fill-opacity:1" />
  <ellipse
     cx="-44.592209"
     cy="752.36749"
     rx="28.090429"
     ry="12.70282"
     transform="rotate(-72.0342)"
     id="ellipse54"
     style="fill:#ff7d35;fill-opacity:1" />
  <path
     d="m 712.22804,277.8814 c 4.61092,-14.21979 3.35687,-27.4722 -2.7109,-30.35509 a 5.89148,5.89148 0 0 1 1.07554,0.238 c 6.67348,2.164 8.20424,15.88146 3.419,30.639 -4.78524,14.75754 -14.07438,24.96651 -20.7479,22.80258 a 5.86342,5.86342 0 0 1 -0.70807,-0.28386 c 6.56427,0.83586 15.13912,-9.06041 19.67233,-23.04063 z"
     id="path56"
     inkscape:connector-curvature="0"
     style="opacity:0.4" />
  <path
     d="M 709.96863,247.51507 579.73087,146.48983 A 861.92171,861.92171 0 0 1 513.51576,89.104326 C 476.39044,53.716616 425.99232,25.423536 367.31452,10.360036 224.75332,-26.237614 111.81586,38.654476 60.448665,133.93829 -18.045905,279.54217 -78.201545,515.81769 269.84267,390.0484 345.9595,362.54278 423.00747,359.61908 481.42861,345.13067 l 211.54,-43.6156 z"
     id="path58"
     style="fill:#ff7d35;fill-opacity:1"
     inkscape:connector-curvature="0" />
  <circle
     cx="318.96863"
     cy="70.515076"
     r="7"
     id="circle60"
     style="fill:#f2f2f2" />
  <polygon
     points="453.127,84.873 452.771,84.873 452.771,86.695 450.949,86.695 450.949,87.051 452.771,87.051 452.771,88.873 453.127,88.873 453.127,87.051 454.949,87.051 454.949,86.695 453.127,86.695 "
     id="polygon62"
     style="fill:#f2f2f2"
     transform="translate(5.0195185e-6,6.101842e-6)" />
  <polygon
     points="636.127,236.873 635.771,236.873 635.771,238.695 633.949,238.695 633.949,239.051 635.771,239.051 635.771,240.873 636.127,240.873 636.127,239.051 637.949,239.051 637.949,238.695 636.127,238.695 "
     id="polygon64"
     style="fill:#f2f2f2"
     transform="translate(5.0195185e-6,6.101842e-6)" />
  <polygon
     points="623.127,283.873 622.771,283.873 622.771,285.695 620.949,285.695 620.949,286.051 622.771,286.051 622.771,287.873 623.127,287.873 623.127,286.051 624.949,286.051 624.949,285.695 623.127,285.695 "
     id="polygon66"
     style="fill:#f2f2f2"
     transform="translate(5.0195185e-6,6.101842e-6)" />
  <polygon
     points="64.127,323.873 63.771,323.873 63.771,325.695 61.949,325.695 61.949,326.051 63.771,326.051 63.771,327.873 64.127,327.873 64.127,326.051 65.949,326.051 65.949,325.695 64.127,325.695 "
     id="polygon68"
     style="fill:#f2f2f2"
     transform="translate(5.0195185e-6,6.101842e-6)" />
  <polygon
     points="144.127,105.873 143.771,105.873 143.771,107.695 141.949,107.695 141.949,108.051 143.771,108.051 143.771,109.873 144.127,109.873 144.127,108.051 145.949,108.051 145.949,107.695 144.127,107.695 "
     id="polygon70"
     style="fill:#f2f2f2"
     transform="translate(5.0195185e-6,6.101842e-6)" />
  <polygon
     points="455.127,291.873 454.771,291.873 454.771,293.695 452.949,293.695 452.949,294.051 454.771,294.051 454.771,295.873 455.127,295.873 455.127,294.051 456.949,294.051 456.949,293.695 455.127,293.695 "
     id="polygon72"
     style="fill:#f2f2f2"
     transform="translate(5.0195185e-6,6.101842e-6)" />
  <polygon
     points="264.127,41.873 263.771,41.873 263.771,43.695 261.949,43.695 261.949,44.051 263.771,44.051 263.771,45.873 264.127,45.873 264.127,44.051 265.949,44.051 265.949,43.695 264.127,43.695 "
     id="polygon74"
     style="fill:#f2f2f2"
     transform="translate(5.0195185e-6,6.101842e-6)" />
  <path
     d="m 266.64926,187.673 -2.27,0.35 c 0.71,4.54 1.27,9.18 1.68,13.77 l 2.29,-0.2 c -0.41002,-4.64998 -0.98002,-9.32997 -1.7,-13.92 z"
     id="path76"
     inkscape:connector-curvature="0"
     style="fill:#e6e6e6" />
  <path
     d="m 260.43924,160.33298 -2.2,0.67 c 1.33,4.4 2.52,8.91 3.53,13.4 l 2.25,-0.51 c -1.03001,-4.53998 -2.23997,-9.09998 -3.58,-13.56 z"
     id="path78"
     inkscape:connector-curvature="0"
     style="fill:#e6e6e6" />
  <path
     d="m 250.52927,134.11301 -2.09,0.96 c 1.92,4.19 3.72,8.49 5.35,12.79 l 2.15,-0.81 c -1.64995,-4.35004 -3.45995,-8.71002 -5.41,-12.94 z"
     id="path80"
     inkscape:connector-curvature="0"
     style="fill:#e6e6e6" />
  <path
     d="m 237.12925,109.53299 -1.94,1.23 c 2.47,3.87994 4.84,7.9 7.04,11.93 l 2.02,-1.1 c -2.21998,-4.07996 -4.62,-8.14002 -7.12,-12.06 z"
     id="path82"
     inkscape:connector-curvature="0"
     style="fill:#e6e6e6" />
  <path
     d="m 220.46932,87.003016 -1.75,1.49 c 2.98,3.5 5.88,7.16 8.62,10.86 l 1.84,-1.37 c -2.7601,-3.74001 -5.69009,-7.44002 -8.71,-10.98 z"
     id="path84"
     inkscape:connector-curvature="0"
     style="fill:#e6e6e6" />
  <path
     d="m 200.88925,66.943016 -1.53,1.71 c 3.44,3.07 6.81,6.3 10.02,9.59 l 1.65,-1.61 c -3.24993,-3.33001 -6.66001,-6.59002 -10.14,-9.69 z"
     id="path86"
     inkscape:connector-curvature="0"
     style="fill:#e6e6e6" />
  <path
     d="m 178.76926,49.722986 -1.29,1.9 c 3.82,2.57 7.6,5.31 11.23,8.14 l 1.42,-1.81006 c -3.68001,-2.85994 -7.50001,-5.6299 -11.36,-8.22994 z"
     id="path88"
     inkscape:connector-curvature="0"
     style="fill:#e6e6e6" />
  <path
     d="m 158.63925,37.763026 v 2.6 c 2.39,1.25 4.76,2.56 7.08,3.9 l 1.15,-1.99 q -4.05004,-2.34005 -8.23,-4.51 z"
     id="path90"
     inkscape:connector-curvature="0"
     style="fill:#e6e6e6" />
  <path
     d="m 266.80422,215.97873 2.29863,-0.0418 c 0.0422,2.3211 0.0454,4.65451 0.009,6.93607 l -2.29844,-0.0359 c 0.0349,-2.25559 0.0319,-4.56313 -0.01,-6.8584 z"
     id="path92"
     inkscape:connector-curvature="0"
     style="fill:#e6e6e6" />
  <path
     d="m 131.64926,384.673 -2.27,0.35 c 0.71,4.54 1.27,9.18 1.68,13.77 l 2.29,-0.2 c -0.41002,-4.64998 -0.98002,-9.32997 -1.7,-13.92 z"
     id="path94"
     inkscape:connector-curvature="0"
     style="fill:#e6e6e6" />
  <path
     d="m 125.43924,357.33298 -2.2,0.67 c 1.33,4.4 2.52,8.91 3.53,13.4 l 2.25,-0.51 c -1.03001,-4.53998 -2.23992,-9.09998 -3.58,-13.56 z"
     id="path96"
     inkscape:connector-curvature="0"
     style="fill:#e6e6e6" />
  <path
     d="m 115.52932,331.11301 -2.09,0.96 c 1.92,4.19 3.72,8.49 5.35,12.79 l 2.15,-0.81 c -1.65,-4.35004 -3.46,-8.71002 -5.41,-12.94 z"
     id="path98"
     inkscape:connector-curvature="0"
     style="fill:#e6e6e6" />
  <path
     d="m 102.12925,306.53299 -1.94,1.23 c 2.47,3.87994 4.84,7.9 7.04,11.93 l 2.02,-1.1 c -2.21993,-4.07996 -4.62,-8.14002 -7.12,-12.06 z"
     id="path100"
     inkscape:connector-curvature="0"
     style="fill:#e6e6e6" />
  <path
     d="m 85.469315,284.00302 -1.75,1.49 c 2.98,3.5 5.88,7.16 8.62,10.86 l 1.84,-1.37 c -2.7601,-3.74001 -5.69009,-7.44002 -8.71,-10.98 z"
     id="path102"
     inkscape:connector-curvature="0"
     style="fill:#e6e6e6" />
  <path
     d="m 65.889245,263.94302 -1.53,1.71 c 3.44,3.07 6.81,6.3 10.02,9.59 l 1.65,-1.61 c -3.24993,-3.33001 -6.66001,-6.59002 -10.14,-9.69 z"
     id="path104"
     inkscape:connector-curvature="0"
     style="fill:#e6e6e6" />
  <path
     d="m 43.769255,246.72299 -1.29,1.9 c 3.81995,2.57 7.6,5.31 11.23,8.14 l 1.42,-1.81006 c -3.68001,-2.85994 -7.50001,-5.6299 -11.36,-8.22994 z"
     id="path106"
     inkscape:connector-curvature="0"
     style="fill:#e6e6e6" />
  <path
     d="m 23.639245,234.76303 v 2.6 c 2.39,1.25 4.76,2.56 7.08,3.9 l 1.15,-1.99 q -4.05004,-2.34005 -8.23,-4.51 z"
     id="path108"
     inkscape:connector-curvature="0"
     style="fill:#e6e6e6" />
  <path
     d="m 131.80422,412.97873 2.29863,-0.0418 c 0.0422,2.3211 0.0454,4.65451 0.009,6.93607 l -2.29844,-0.0359 c 0.035,-2.25559 0.0319,-4.56313 -0.01,-6.8584 z"
     id="path110"
     inkscape:connector-curvature="0"
     style="fill:#e6e6e6" />
  <path
     d="m 593.64926,285.673 -2.27,0.35 c 0.71,4.54 1.27,9.18 1.68,13.77 l 2.29,-0.2 c -0.41002,-4.64998 -0.98002,-9.32997 -1.7,-13.92 z"
     id="path112"
     inkscape:connector-curvature="0"
     style="fill:#e6e6e6" />
  <path
     d="m 587.43924,258.33298 -2.2,0.67 c 1.33,4.4 2.52,8.91 3.53,13.4 l 2.25,-0.51 c -1.03001,-4.53998 -2.23992,-9.09998 -3.58,-13.56 z"
     id="path114"
     inkscape:connector-curvature="0"
     style="fill:#e6e6e6" />
  <path
     d="m 577.52932,232.11301 -2.09,0.96 c 1.92,4.19 3.72,8.49 5.35,12.79 l 2.15,-0.81 c -1.65,-4.35004 -3.46,-8.71002 -5.41,-12.94 z"
     id="path116"
     inkscape:connector-curvature="0"
     style="fill:#e6e6e6" />
  <path
     d="m 564.12925,207.53299 -1.94,1.23 c 2.47,3.87994 4.84,7.9 7.04,11.93 l 2.02,-1.1 c -2.21993,-4.07996 -4.62,-8.14002 -7.12,-12.06 z"
     id="path118"
     inkscape:connector-curvature="0"
     style="fill:#e6e6e6" />
  <path
     d="m 547.46932,185.00302 -1.75,1.49 c 2.98,3.5 5.88,7.16 8.62,10.86 l 1.84,-1.37 c -2.7601,-3.74001 -5.69009,-7.44002 -8.71,-10.98 z"
     id="path120"
     inkscape:connector-curvature="0"
     style="fill:#e6e6e6" />
  <path
     d="m 527.88925,164.94302 -1.53,1.71 c 3.44,3.07 6.81,6.3 10.02,9.59 l 1.65,-1.61 c -3.24993,-3.33001 -6.66001,-6.59002 -10.14,-9.69 z"
     id="path122"
     inkscape:connector-curvature="0"
     style="fill:#e6e6e6" />
  <path
     d="m 505.76926,147.72299 -1.29,1.9 c 3.82,2.57 7.6,5.31 11.23,8.14 l 1.42,-1.81006 c -3.68001,-2.85994 -7.50001,-5.6299 -11.36,-8.22994 z"
     id="path124"
     inkscape:connector-curvature="0"
     style="fill:#e6e6e6" />
  <path
     d="m 485.63925,135.76303 v 2.6 c 2.39,1.25 4.76,2.56 7.08,3.9 l 1.15,-1.99 q -4.05004,-2.34005 -8.23,-4.51 z"
     id="path126"
     inkscape:connector-curvature="0"
     style="fill:#e6e6e6" />
  <path
     d="m 593.80422,313.97873 2.29863,-0.0418 c 0.0422,2.3211 0.0454,4.65451 0.009,6.93607 l -2.29844,-0.0359 c 0.0349,-2.25559 0.0319,-4.56313 -0.01,-6.8584 z"
     id="path128"
     inkscape:connector-curvature="0"
     style="fill:#e6e6e6" />
  <polygon
     points="147.6,198.199 147.269,198.199 147.269,199.895 145.573,199.895 145.573,200.225 147.269,200.225 147.269,201.921 147.6,201.921 147.6,200.225 149.295,200.225 149.295,199.895 147.6,199.895 "
     id="polygon130"
     style="fill:#f2f2f2"
     transform="translate(5.0195185e-6,6.101842e-6)" />
  <polygon
     points="128.059,300.556 127.728,300.556 127.728,302.252 126.032,302.252 126.032,302.583 127.728,302.583 127.728,304.278 128.059,304.278 128.059,302.583 129.754,302.583 129.754,302.252 128.059,302.252 "
     id="polygon132"
     style="fill:#f2f2f2"
     transform="translate(5.0195185e-6,6.101842e-6)" />
  <polygon
     points="70.721,390.264 70.39,390.264 70.39,391.959 68.695,391.959 68.695,392.29 70.39,392.29 70.39,393.986 70.721,393.986 70.721,392.29 72.417,392.29 72.417,391.959 70.721,391.959 "
     id="polygon134"
     style="fill:#f2f2f2"
     transform="translate(5.0195185e-6,6.101842e-6)" />
  <path
     d="M 231.9186,278.1829 A 122.81116,122.81116 0 1 1 288.90037,323.93429 39.726,39.726 0 1 1 231.9186,278.1829 Z"
     id="path136"
     style="fill:#112d38;fill-opacity:1"
     inkscape:connector-curvature="0" />
  <path
     d="m 333.12811,139.43696 c 28.154,0 47.524,15.61609 47.524,38.06422 0,14.86532 -7.20743,25.15092 -21.09674,33.33435 -13.06346,7.58282 -17.493,13.13854 -17.493,22.74844 v 0 a 5.93109,5.93109 0 0 1 -5.9311,5.9311 h -14.39295 a 5.9311,5.9311 0 0 1 -5.9275,-5.72432 l -0.0256,-0.73233 c -1.27631,-15.466 4.12926,-25.07584 17.71827,-33.034 12.68807,-7.58282 18.01856,-12.38777 18.01856,-21.69736 0,-9.30959 -9.00928,-16.14163 -20.1958,-16.14163 -8.50252,0 -15.23133,4.13864 -18.31771,10.8956 a 13.25248,13.25248 0 0 1 -12.112,7.57343 v 0 c -9.752,0 -16.19427,-10.37059 -11.63357,-18.99048 7.21437,-13.63566 22.43624,-22.22702 43.86509,-22.22702 z m -19.74535,128.68258 c 0,-8.63389 7.20743,-15.46594 16.06655,-15.46594 8.93421,0 16.14162,6.757 16.14162,15.46594 0,8.70894 -7.20743,15.466 -16.14163,15.466 -8.9342,0 -16.06655,-6.757 -16.06655,-15.466 z"
     id="path138"
     style="fill:#ff7d35;fill-opacity:1"
     inkscape:connector-curvature="0" />
</svg>
