<?xml version="1.0" encoding="UTF-8" standalone="no"?>
<svg
   xmlns:dc="http://purl.org/dc/elements/1.1/"
   xmlns:cc="http://creativecommons.org/ns#"
   xmlns:rdf="http://www.w3.org/1999/02/22-rdf-syntax-ns#"
   xmlns:svg="http://www.w3.org/2000/svg"
   xmlns="http://www.w3.org/2000/svg"
   xmlns:sodipodi="http://sodipodi.sourceforge.net/DTD/sodipodi-0.dtd"
   xmlns:inkscape="http://www.inkscape.org/namespaces/inkscape"
   id="9af98f83-10c5-4067-bc84-20554b2827d8"
   data-name="Layer 1"
   width="728.23389"
   height="359.73907"
   viewBox="0 0 728.2339 359.73908"
   version="1.1"
   sodipodi:docname="no-results.svg"
   inkscape:version="0.92.3 (2405546, 2018-03-11)">
  <metadata
     id="metadata208">
    <rdf:RDF>
      <cc:Work
         rdf:about="">
        <dc:format>image/svg+xml</dc:format>
        <dc:type
           rdf:resource="http://purl.org/dc/dcmitype/StillImage" />
        <dc:title>empty</dc:title>
      </cc:Work>
    </rdf:RDF>
  </metadata>
  <sodipodi:namedview
     pagecolor="#ffffff"
     bordercolor="#666666"
     borderopacity="1"
     objecttolerance="10"
     gridtolerance="10"
     guidetolerance="10"
     inkscape:pageopacity="0"
     inkscape:pageshadow="2"
     inkscape:window-width="1034"
     inkscape:window-height="744"
     id="namedview206"
     showgrid="false"
     fit-margin-top="0"
     fit-margin-left="0"
     fit-margin-right="0"
     fit-margin-bottom="0"
     inkscape:zoom="0.29876065"
     inkscape:cx="386.65084"
     inkscape:cy="502.08118"
     inkscape:window-x="1366"
     inkscape:window-y="0"
     inkscape:window-maximized="0"
     inkscape:current-layer="9af98f83-10c5-4067-bc84-20554b2827d8" />
  <defs
     id="defs9">
    <linearGradient
       id="07c62293-c0d3-4921-8e06-4e39241449cd"
       x1="318.22"
       y1="488.45001"
       x2="630.34998"
       y2="488.45001"
       gradientUnits="userSpaceOnUse">
      <stop
         offset="0"
         stop-color="gray"
         stop-opacity="0.25"
         id="stop2" />
      <stop
         offset="0.54"
         stop-color="gray"
         stop-opacity="0.12"
         id="stop4" />
      <stop
         offset="1"
         stop-color="gray"
         stop-opacity="0.1"
         id="stop6" />
    </linearGradient>
  </defs>
  <title
     id="title11">empty</title>
  <ellipse
     cx="176.10001"
     cy="326.37906"
     rx="176.10001"
     ry="33.360001"
     id="ellipse13"
     style="opacity:0.1;fill:#112d38;fill-opacity:1" />
  <path
     d="m 211.66246,288.40922 c -10,14.31 -45.95,6.73 -45.95,6.73 l -27.86,-26.07 -3.75,-3.53 6.29,-13.36 c 0,0 2,0.55 5.43,1.53 18.01,5.23 74.28,22.67 65.84,34.7 z"
     id="path19"
     inkscape:connector-curvature="0"
     style="fill:#efb7b9" />
  <path
     d="m 145.80246,253.70922 c -1.23,4.28 -4.6,10.69 -7.95,15.36 l -3.75,-3.53 6.29,-13.36 c 0,0 2.02,0.55 5.41,1.53 z"
     id="path21"
     inkscape:connector-curvature="0"
     style="opacity:0.1" />
  <polygon
     points="330.96,347.33 407.96,334.8 407.96,407.7 334.8,403.87 "
     id="polygon115"
     style="fill:#ff7335"
     transform="translate(-251.66754,-120.34078)" />
  <polygon
     points="330.96,347.33 407.96,334.8 407.96,407.7 334.8,403.87 "
     id="polygon117"
     style="opacity:0.05"
     transform="translate(-251.66754,-120.34078)" />
  <polygon
     points="407.96,334.8 500.3,341.71 495.19,405.15 407.96,407.7 "
     id="polygon119"
     style="fill:#ff7335"
     transform="translate(-251.66754,-120.34078)" />
  <polygon
     points="407.96,334.8 500.3,341.71 495.19,405.15 407.96,407.7 "
     id="polygon121"
     style="opacity:0.1"
     transform="translate(-251.66754,-120.34078)" />
  <polygon
     points="436.35,312.55 407.96,334.8 500.3,341.71 515.39,318.94 "
     id="polygon123"
     style="fill:#ff7335"
     transform="translate(-251.66754,-120.34078)" />
  <polygon
     points="303.08,323.03 372.4,314.59 407.96,334.8 330.96,347.33 "
     id="polygon125"
     style="fill:#ff7335"
     transform="translate(-251.66754,-120.34078)" />
  <polygon
     points="368.3,447.6 352.62,445.99 330.96,443.77 330.96,347.33 407.95,352.57 424.84,353.73 424.84,453.4 388.77,449.7 373.08,448.1 "
     id="polygon127"
     style="fill:#ff7335"
     transform="translate(-251.66754,-120.34078)" />
  <polygon
     points="424.84,453.4 424.84,353.73 500.3,341.71 500.3,438.91 471.39,444.46 457.33,447.16 "
     id="polygon129"
     style="fill:#ff7335"
     transform="translate(-251.66754,-120.34078)" />
  <polygon
     points="424.84,453.4 424.84,353.73 500.3,341.71 500.3,438.91 471.39,444.46 457.33,447.16 "
     id="polygon131"
     style="opacity:0.05"
     transform="translate(-251.66754,-120.34078)" />
  <polygon
     points="303.08,368.31 330.96,347.33 424.84,353.73 411.02,377.01 "
     id="polygon133"
     style="fill:#ff7335"
     transform="translate(-251.66754,-120.34078)" />
  <polygon
     points="303.08,368.31 330.96,347.33 424.84,353.73 411.02,377.01 "
     id="polygon135"
     style="opacity:0.1;fill:#ffffff"
     transform="translate(-251.66754,-120.34078)" />
  <polygon
     points="500.3,341.71 424.84,353.73 449.4,375.73 530.23,362.17 "
     id="polygon137"
     style="fill:#ff7335"
     transform="translate(-251.66754,-120.34078)" />
  <polygon
     points="500.3,341.71 424.84,353.73 449.4,375.73 530.23,362.17 "
     id="polygon139"
     style="opacity:0.1;fill:#ffffff"
     transform="translate(-251.66754,-120.34078)" />
  <polygon
     points="471.39,444.46 457.33,447.16 457.33,426.39 470.5,423.07 "
     id="polygon141"
     style="opacity:0.1;fill:#ffffff"
     transform="translate(-251.66754,-120.34078)" />
  <path
     d="m 398.10246,0.04922031 c 0,0 -38,-2.29000001 -33.56,24.37000269 0,0 -0.89,4.71 3.38,6.85 0,0 0.07,-2 3.9,-1.31 a 17.51,17.51 0 0 0 4.13,0.2 8.57,8.57 0 0 0 5.06,-2.09 v 0 c 0,0 10.69,-4.41 14.85,-21.8899997 0,0 3.08,-3.82 3,-4.8 l -6.42,2.75 c 0,0 2.19,4.63 0.46,8.4799997 0,0 -0.2,-8.3099997 -1.44,-8.1199997 -0.25,0 -3.33,1.61 -3.33,1.61 0,0 3.77,8.0599997 0.92,13.9299997 0,0 1.08,-9.94 -2.1,-13.3499997 l -4.52,2.64 c 0,0 4.41,8.3299997 1.42,15.1299997 0,0 0.77,-10.43 -2.37,-14.4899997 l -4.1,3.1899997 c 0,0 4.15,8.22 1.62,13.86 0,0 -0.33,-12.14 -2.51,-13.06 0,0 -3.58,3.16 -4.12,4.46 0,0 2.83,6 1.07,9.11 0,0 -1.08,-8.09 -2,-8.13 0,0 -3.57,5.36 -3.94,9 a 19.46,19.46 0 0 1 3.07,-9.54 10.71,10.71 0 0 0 -5.46,2.83 c 0,0 0.55,-3.79 6.34,-4.12 0,0 3,-4.07 3.74,-4.32 0,0 -5.76,-0.48 -9.25,1.07 0,0 3.07,-3.57 10.31,-2 l 4,-3.2999997 c 0,0 -7.58,-1 -10.8,0.11 0,0 3.7,-3.16 11.89,-0.86 l 4.4,-2.63 c 0,0 -6.46,-1.4 -10.31,-0.89 0,0 4.06,-2.19 11.6,0.18 l 3.15,-1.41 c 0,0 -4.74,-0.93 -6.12,-1.08 -1.38,-0.15 -1.46,-0.53 -1.46,-0.53 a 16.36,16.36 0 0 1 8.89,1 c 0,0 6.75,-2.43000299 6.61,-2.85000299 z"
     id="path161"
     inkscape:connector-curvature="0"
     style="fill:#ff7335" />
  <path
     d="m 513.56246,133.38922 c 0,0 -38,-2.29 -33.56,24.37 0,0 -0.89,4.71 3.38,6.85 0,0 0.07,-2 3.91,-1.31 a 17.51,17.51 0 0 0 4.13,0.2 8.56,8.56 0 0 0 5,-2.08 v 0 c 0,0 10.7,-4.42 14.86,-21.9 0,0 3.07,-3.81 2.95,-4.79 l -6.42,2.74 c 0,0 2.19,4.63 0.47,8.48 0,0 -0.21,-8.31 -1.44,-8.12 -0.25,0 -3.34,1.61 -3.34,1.61 0,0 3.78,8.07 0.93,13.93 0,0 1.08,-9.94 -2.11,-13.35 l -4.47,2.61 c 0,0 4.41,8.33 1.42,15.13 0,0 0.77,-10.43 -2.37,-14.49 l -4.09,3.2 c 0,0 4.14,8.21 1.62,13.85 0,0 -0.33,-12.14 -2.51,-13.06 0,0 -3.58,3.16 -4.13,4.46 0,0 2.84,6 1.08,9.11 0,0 -1.08,-8.09 -2,-8.13 0,0 -3.57,5.36 -3.94,9 a 19.52,19.52 0 0 1 3.08,-9.54 10.76,10.76 0 0 0 -5.47,2.83 c 0,0 0.56,-3.79 6.35,-4.12 0,0 2.95,-4.07 3.74,-4.32 0,0 -5.76,-0.48 -9.25,1.07 0,0 3.07,-3.57 10.3,-1.95 l 4,-3.3 c 0,0 -7.59,-1 -10.8,0.11 0,0 3.7,-3.16 11.89,-0.86 l 4.4,-2.63 c 0,0 -6.47,-1.39 -10.32,-0.89 0,0 4.07,-2.19 11.61,0.18 l 3.15,-1.41 c 0,0 -4.74,-0.93 -6.13,-1.08 -1.39,-0.15 -1.46,-0.53 -1.46,-0.53 a 16.39,16.39 0 0 1 8.9,1 c 0,0 6.76,-2.45 6.64,-2.87 z"
     id="path163"
     inkscape:connector-curvature="0"
     style="opacity:0.1;fill:#ff7335" />
  <path
     d="m 282.71246,109.71922 c 0,0 8.75,-37.089997 -18.29,-37.219997 0,0 -4.49,-1.68 -7.32,2.16 0,0 1.93,0.41 0.62,4.07 a 17.8,17.8 0 0 0 -0.9,4 8.59,8.59 0 0 0 1.19,5.33 v 0 c 0,0 2.53,11.3 19,18.379997 0,0 3.24,3.68 4.22,3.72 l -1.6,-6.79 c 0,0 -4.94,1.37 -8.44,-1 0,0 8.23,1.21 8.24,0 0,-0.25 -1,-3.559997 -1,-3.559997 0,0 -8.59,2.339997 -13.89,-1.47 0,0 9.61,2.759997 13.52,0.21 l -1.8,-4.92 c 0,0 -9,2.93 -15.16,-1.18 0,0 10.15,2.54 14.69,0.14 l -2.45,-4.58 c 0,0 -8.8,2.68 -13.93,-0.77 0,0 12,1.74 13.3,-0.24 0,0 -2.5,-4.07 -3.69,-4.83 0,0 -6.36,1.78 -9.16,-0.49 0,0 8.15,0.31 8.34,-0.55 0,0 -4.67,-4.43 -8.23,-5.43 a 19.6,19.6 0 0 1 8.89,4.66 10.79,10.79 0 0 0 -1.86,-5.87 c 0,0 3.64,1.2 3,7 0,0 3.5,3.6 3.61,4.42 0,0 1.45,-5.59 0.52,-9.3 0,0 3,3.64 0.17,10.49 l 2.56,4.55 c 0,0 2.32,-7.3 1.73,-10.66 0,0 2.49,4.18 -1.18,11.86 l 1.85,4.79 c 0,0 2.47,-6.14 2.63,-10 0,0 1.47,4.38 -2.16,11.41 l 0.86,3.339997 c 0,0 1.72,-4.509997 2.1,-5.849997 0.38,-1.34 0.77,-1.35 0.77,-1.35 a 16.38,16.38 0 0 1 -2.49,8.599997 c 0,0 1.31,6.98 1.74,6.93 z"
     id="path165"
     inkscape:connector-curvature="0"
     style="opacity:0.1;fill:#ff7335" />
  <path
     d="m 199.49246,122.35922 c 0,0 -30.52,-22.829997 -41.43,1.9 0,0 -3.33,3.45 -0.94,7.58 0,0 1.14,-1.61 4,1.06 a 17.51,17.51 0 0 0 3.34,2.44 8.58,8.58 0 0 0 5.37,1 v 0 c 0,0 11.36,2.19 24.44,-10.12 0,0 4.67,-1.5 5.11,-2.38 l -6.89,-1.21 c 0,0 -0.72,5.07 -4.27,7.34 0,0 4.39,-7.06 3.25,-7.57 -0.23,-0.11 -3.67,-0.5 -3.67,-0.5 0,0 -1.28,8.82 -6.88,12.15 0,0 6.37,-7.71 5.58,-12.31 l -5.23,-0.28 c 0,0 -0.89,9.39 -7.13,13.43 0,0 6.37,-8.29 6,-13.41 l -5.18,0.42 c 0,0 -1.05,9.13 -6.26,12.45 0,0 6.39,-10.32 5.08,-12.28 0,0 -4.73,0.67 -5.9,1.45 0,0 -0.91,6.54 -4.11,8.2 0,0 3.55,-7.35 2.83,-7.86 0,0 -5.93,2.51 -8.26,5.37 a 19.53,19.53 0 0 1 7.82,-6.28 10.77,10.77 0 0 0 -6.12,-0.64 c 0,0 2.54,-2.86 7.56,0.05 0,0 4.7,-1.77 5.5,-1.55 0,0 -4.55,-3.57 -8.32,-4.19 0,0 4.54,-1.3 9.69,4 l 5.19,-0.53 c 0,0 -5.77,-5 -9.08,-5.84 0,0 4.83,-0.61 10.4,5.81 l 5.12,0.23 c 0,0 -4.63,-4.72 -8.12,-6.42 0,0 4.59,0.4 9.59,6.53 l 3.41,0.55 c 0,0 -3.45,-3.38 -4.53,-4.26 -1.08,-0.88 -0.93,-1.25 -0.93,-1.25 a 16.43,16.43 0 0 1 6.89,5.72 c 0,0 6.95,1.61 7.08,1.2 z"
     id="path167"
     inkscape:connector-curvature="0"
     style="opacity:0.1;fill:#ff7335" />
  <path
     d="m 669.70246,235.12922 c 0,0 -37.88,-4.22 -34.75,22.64 0,0 -1.13,4.66 3,7 0,0 0.17,-2 4,-1.11 a 17.3,17.3 0 0 0 4.12,0.41 8.53,8.53 0 0 0 5.15,-1.83 v 0 c 0,0 10.91,-3.87 15.95,-21.11 0,0 3.26,-3.66 3.19,-4.64 l -6.55,2.41 c 0,0 2,4.74 0,8.5 0,0 0.21,-8.32 -1,-8.18 -0.25,0 -3.41,1.43 -3.41,1.43 0,0 3.36,8.25 0.22,14 0,0 1.58,-9.87 -1.43,-13.44 l -4.65,2.41 c 0,0 4,8.55 0.66,15.19 0,0 1.29,-10.38 -1.64,-14.6 l -4.25,3 c 0,0 3.72,8.41 0.91,13.91 0,0 0.29,-12.14 -1.84,-13.16 0,0 -3.73,3 -4.35,4.24 0,0 2.54,6.1 0.62,9.15 0,0 -0.67,-8.13 -1.55,-8.21 0,0 -3.84,5.17 -4.4,8.82 a 19.47,19.47 0 0 1 3.56,-9.38 10.67,10.67 0 0 0 -5.6,2.55 c 0,0 0.74,-3.76 6.54,-3.8 0,0 3.16,-3.91 4,-4.11 0,0 -5.73,-0.78 -9.3,0.59 0,0 3.25,-3.41 10.4,-1.42 l 4.2,-3.09 c 0,0 -7.52,-1.42 -10.79,-0.44 0,0 3.86,-3 11.92,-0.26 l 4.53,-2.4 c 0,0 -6.39,-1.72 -10.26,-1.41 0,0 4.17,-2 11.58,0.77 l 3.22,-1.26 c 0,0 -4.69,-1.17 -6.07,-1.38 -1.38,-0.21 -1.43,-0.6 -1.43,-0.6 a 16.39,16.39 0 0 1 8.84,1.43 c 0,0 6.76,-2.19 6.66,-2.62 z"
     id="path175"
     inkscape:connector-curvature="0"
     style="opacity:0.1;fill:#ff7335" />
  <path
     d="m 727.61246,270.50922 c 0,0 -37.88,-4.21 -34.75,22.64 0,0 -1.12,4.66 3,7 0,0 0.17,-2 4,-1.1 a 17.65,17.65 0 0 0 4.11,0.4 8.64,8.64 0 0 0 5.13,-1.82 v 0 c 0,0 10.9,-3.87 15.94,-21.12 0,0 3.27,-3.65 3.19,-4.64 l -6.55,2.41 c 0,0 2,4.74 0,8.5 0,0 0.21,-8.31 -1,-8.18 -0.25,0 -3.41,1.43 -3.41,1.43 0,0 3.36,8.25 0.22,14 0,0 1.58,-9.87 -1.43,-13.43 l -4.65,2.4 c 0,0 4,8.55 0.66,15.19 0,0 1.29,-10.38 -1.64,-14.59 l -4.25,3 c 0,0 3.72,8.41 0.92,13.92 0,0 0.28,-12.15 -1.85,-13.17 0,0 -3.73,3 -4.35,4.24 0,0 2.54,6.1 0.62,9.15 0,0 -0.67,-8.13 -1.55,-8.21 0,0 -3.84,5.17 -4.39,8.82 a 19.52,19.52 0 0 1 3.55,-9.38 10.76,10.76 0 0 0 -5.6,2.55 c 0,0 0.75,-3.76 6.55,-3.79 0,0 3.15,-3.91 4,-4.12 0,0 -5.73,-0.77 -9.3,0.6 0,0 3.25,-3.42 10.4,-1.43 l 4.2,-3.09 c 0,0 -7.52,-1.42 -10.79,-0.44 0,0 3.86,-3 11.92,-0.25 l 4.53,-2.41 c 0,0 -6.39,-1.72 -10.26,-1.41 0,0 4.17,-2 11.58,0.77 l 3.22,-1.25 c 0,0 -4.69,-1.17 -6.06,-1.39 -1.37,-0.22 -1.44,-0.6 -1.44,-0.6 a 16.45,16.45 0 0 1 8.84,1.44 c 0,0 6.79,-2.21 6.69,-2.64 z"
     id="path177"
     inkscape:connector-curvature="0"
     style="opacity:0.1;fill:#ff7335" />
  <path
     d="m 622.62246,137.31922 c 0,0 -10.52,-36.63 -34.18,-23.48 0,0 -4.74,0.73 -5.33,5.47 0,0 1.88,-0.59 2.53,3.24 a 17.73,17.73 0 0 0 1.2,4 8.59,8.59 0 0 0 3.66,4.08 v 0 c 0,0 7.74,8.6 25.6,6.68 0,0 4.62,1.62 5.5,1.18 l -4.73,-5.14 c 0,0 -3.63,3.62 -7.83,3.28 0,0 7.76,-3 7.16,-4.07 -0.12,-0.22 -2.62,-2.61 -2.62,-2.61 0,0 -6.34,6.26 -12.82,5.53 0,0 9.73,-2.3 11.87,-6.44 l -4,-3.38 c 0,0 -6.38,6.94 -13.79,6.4 0,0 10.08,-2.77 12.86,-7.08 l -4.38,-2.79 c 0,0 -6.35,6.65 -12.51,6.15 0,0 11.33,-4.37 11.47,-6.72 0,0 -4.18,-2.32 -5.59,-2.4 0,0 -4.67,4.66 -8.22,4.06 0,0 7.26,-3.73 7,-4.57 0,0 -6.24,-1.57 -9.83,-0.7 a 19.51,19.51 0 0 1 10,-0.29 10.73,10.73 0 0 0 -4.5,-4.2 c 0,0 3.76,-0.75 6,4.6 0,0 4.81,1.42 5.31,2.08 0,0 -1.47,-5.59 -4.1,-8.36 0,0 4.4,1.7 5.29,9.06 l 4.46,2.71 c 0,0 -1.56,-7.5 -3.72,-10.14 0,0 4.22,2.43 4.79,10.91 l 4,3.27 c 0,0 -0.85,-6.56 -2.61,-10 0,0 3.43,3.1 3.71,11 l 2.38,2.5 c 0,0 -0.7,-4.78 -1,-6.14 -0.3,-1.36 0,-1.55 0,-1.55 a 16.39,16.39 0 0 1 2.05,8.72 c 0,0 4.56,5.38 4.92,5.14 z"
     id="path181"
     inkscape:connector-curvature="0"
     style="opacity:0.1;fill:#ff7335" />
  <path
     d="m 388.20246,219.85922 c 0,0 -20.43,-32.18 -39.4,-12.92 0,0 -4.34,2 -3.58,6.75 0,0 1.65,-1.1 3.35,2.4 a 17.12,17.12 0 0 0 2.26,3.46 8.54,8.54 0 0 0 4.65,2.88 v 0 c 0,0 9.85,6.08 26.45,-0.8 0,0 4.89,0.26 5.61,-0.41 l -6,-3.6 c 0,0 -2.47,4.5 -6.6,5.35 0,0 6.62,-5 5.73,-5.92 -0.17,-0.18 -3.25,-1.76 -3.25,-1.76 0,0 -4.33,7.78 -10.75,8.91 0,0 8.69,-4.95 9.59,-9.53 l -4.79,-2.11 c 0,0 -4.17,8.45 -11.43,10 0,0 8.9,-5.49 10.35,-10.41 l -5,-1.44 c 0,0 -4.22,8.17 -10.27,9.42 0,0 9.64,-7.38 9.11,-9.68 0,0 -4.66,-1.05 -6,-0.73 0,0 -3.17,5.79 -6.75,6.21 0,0 5.92,-5.62 5.43,-6.36 0,0 -6.43,0.25 -9.63,2.1 a 19.46,19.46 0 0 1 9.54,-3.1 10.73,10.73 0 0 0 -5.49,-2.77 c 0,0 3.39,-1.77 7,2.73 0,0 5,0 5.69,0.5 0,0 -3,-5 -6.29,-6.87 0,0 4.7,0.4 7.62,7.21 l 5.05,1.34 c 0,0 -3.61,-6.75 -6.42,-8.68 0,0 4.73,1.14 7.66,9.13 l 4.72,2 c 0,0 -2.66,-6.05 -5.33,-8.88 0,0 4.16,2 6.65,9.51 l 3,1.73 c 0,0 -2,-4.39 -2.71,-5.6 -0.71,-1.21 -0.43,-1.49 -0.43,-1.49 a 16.4,16.4 0 0 1 4.41,7.79 c 0,0 5.98,3.98 6.25,3.64 z"
     id="path183"
     inkscape:connector-curvature="0"
     style="opacity:0.1;fill:#ff7335" />
  <path
     d="m 522.47246,55.439223 c 0,0 -19.43,-32.79 -39,-14.13 0,0 -4.4,1.9 -3.78,6.64 0,0 1.67,-1.06 3.27,2.49 a 17.28,17.28 0 0 0 2.15,3.54 8.49,8.49 0 0 0 4.56,3 v 0 c 0,0 9.65,6.38 26.46,0 0,0 4.88,0.41 5.62,-0.24 l -5.87,-3.78 c 0,0 -2.6,4.41 -6.76,5.14 0,0 6.77,-4.83 5.92,-5.74 -0.18,-0.19 -3.2,-1.87 -3.2,-1.87 0,0 -4.57,7.65 -11,8.58 0,0 8.84,-4.68 9.87,-9.22 l -4.72,-2.22 c 0,0 -4.43,8.33 -11.74,9.66 0,0 9.07,-5.21 10.67,-10.08 l -4.94,-1.6 c 0,0 -4.48,8 -10.56,9.1 0,0 9.86,-7.08 9.4,-9.39 0,0 -4.62,-1.2 -6,-0.92 0,0 -3.35,5.69 -6.94,6 0,0 6.09,-5.42 5.63,-6.18 0,0 -6.44,0.05 -9.69,1.8 a 19.52,19.52 0 0 1 9.63,-2.8 10.75,10.75 0 0 0 -5.41,-2.94 c 0,0 3.45,-1.67 7,2.94 0,0 5,0.17 5.67,0.68 0,0 -2.83,-5 -6.07,-7.06 0,0 4.68,0.54 7.39,7.44 l 5,1.5 c 0,0 -3.39,-6.86 -6.15,-8.88 0,0 4.7,1.29 7.38,9.36 l 4.65,2.17 c 0,0 -2.47,-6.13 -5,-9 0,0 4.09,2.13 6.36,9.71 l 2.93,1.82 c 0,0 -1.88,-4.45 -2.54,-5.68 -0.66,-1.23 -0.38,-1.5 -0.38,-1.5 a 16.43,16.43 0 0 1 4.17,7.92 c 0,0 5.73,4.07 6.02,3.74 z"
     id="path185"
     inkscape:connector-curvature="0"
     style="fill:#ff7335" />
  <path
     d="m 399.54246,124.38922 c 0,0 1,-38.099997 -25.47,-32.729997 0,0 -4.74,-0.73 -6.74,3.61 0,0 2,0 1.44,3.85 a 17.56,17.56 0 0 0 -0.06,4.139997 8.55,8.55 0 0 0 2.25,5 v 0 c 0,0 4.77,10.54 22.38,14.12 0,0 3.91,2.95 4.89,2.79 l -3,-6.32 c 0,0 -4.55,2.34 -8.46,0.75 0,0 8.3,-0.49 8.07,-1.71 0,-0.25 -1.72,-3.29 -1.72,-3.29 0,0 -7.94,4.05 -13.89,1.39 0,0 10,0.75 13.27,-2.54 l -2.79,-4.43 c 0,0 -8.18,4.68 -15.08,1.92 0,0 10.45,0.42 14.41,-2.85 l -3.33,-4 c 0,0 -8.07,4.42 -13.79,2.08 0,0 12.12,-0.73 13,-2.94 0,0 -3.28,-3.469997 -4.6,-3.999997 0,0 -5.86,2.999997 -9.06,1.379997 0,0 8,-1.339997 8.05,-2.229997 0,0 -5.47,-3.39 -9.16,-3.64 a 19.47,19.47 0 0 1 9.65,2.76 10.75,10.75 0 0 0 -3,-5.37 c 0,0 3.81,0.43 4.33,6.2 0,0 4.17,2.819997 4.44,3.599997 0,0 0.29,-5.769997 -1.38,-9.209997 0,0 3.68,2.95 2.3,10.229997 l 3.43,3.94 c 0,0 0.78,-7.619997 -0.47,-10.789997 0,0 3.28,3.59 1.26,11.849997 l 2.77,4.31 c 0,0 1.18,-6.51 0.55,-10.34 0,0 2.32,4 0.2,11.61 l 1.52,3.1 c 0,0 0.77,-4.77 0.87,-6.16 0.1,-1.39 0.48,-1.48 0.48,-1.48 a 16.42,16.42 0 0 1 -0.69,8.93 c 0,0 2.69,6.6 3.13,6.47 z"
     id="path187"
     inkscape:connector-curvature="0"
     style="fill:#ff7335" />
  <ellipse
     cx="345.13245"
     cy="673.03925"
     rx="26.93"
     ry="4.5500002"
     id="ellipse191"
     style="opacity:0.1;fill:#ff7335" />
</svg>
