<?xml version="1.0" encoding="UTF-8" standalone="no"?>
<svg
   xmlns:dc="http://purl.org/dc/elements/1.1/"
   xmlns:cc="http://creativecommons.org/ns#"
   xmlns:rdf="http://www.w3.org/1999/02/22-rdf-syntax-ns#"
   xmlns:svg="http://www.w3.org/2000/svg"
   xmlns="http://www.w3.org/2000/svg"
   xmlns:xlink="http://www.w3.org/1999/xlink"
   xmlns:sodipodi="http://sodipodi.sourceforge.net/DTD/sodipodi-0.dtd"
   xmlns:inkscape="http://www.inkscape.org/namespaces/inkscape"
   id="e8ab07fb-aa66-4eb8-9149-b5abc1630568"
   data-name="Layer 2"
   width="769.11914"
   height="419.77466"
   viewBox="0 0 769.11915 419.77465"
   version="1.1"
   sodipodi:docname="procurar-2.svg"
   inkscape:version="0.92.3 (2405546, 2018-03-11)">
  <metadata
     id="metadata63">
    <rdf:RDF>
      <cc:Work
         rdf:about="">
        <dc:format>image/svg+xml</dc:format>
        <dc:type
           rdf:resource="http://purl.org/dc/dcmitype/StillImage" />
        <dc:title></dc:title>
      </cc:Work>
    </rdf:RDF>
  </metadata>
  <defs
     id="defs61">
    <linearGradient
       id="febfb89e-07b1-4842-b918-627d114e5328"
       x1="884.87592"
       y1="214.70119"
       x2="884.87592"
       y2="196.99805"
       xlink:href="#b8dc7ddd-0e76-4866-9241-0076e20120d3"
       gradientTransform="translate(23.080464,-510.22013)" />
    <linearGradient
       id="b8dc7ddd-0e76-4866-9241-0076e20120d3"
       x1="858.28284"
       y1="221.34343"
       x2="858.28284"
       y2="215.55356"
       gradientUnits="userSpaceOnUse">
      <stop
         offset="0"
         stop-opacity="0.12"
         id="stop16" />
      <stop
         offset="0.55135"
         stop-opacity="0.09"
         id="stop18" />
      <stop
         offset="1"
         stop-opacity="0.02"
         id="stop20" />
    </linearGradient>
    <linearGradient
       inkscape:collect="always"
       xlink:href="#b8dc7ddd-0e76-4866-9241-0076e20120d3"
       id="linearGradient887"
       gradientUnits="userSpaceOnUse"
       x1="858.28284"
       y1="221.34343"
       x2="858.28284"
       y2="215.55356"
       gradientTransform="translate(23.080464,-510.22013)" />
    <linearGradient
       id="e7b3f2b9-2797-469d-a8e7-bdddf2d3c493"
       x1="895.45569"
       y1="298.73532"
       x2="895.45569"
       y2="178.44409"
       gradientUnits="userSpaceOnUse"
       gradientTransform="translate(23.080464,-510.22013)">
      <stop
         offset="0"
         stop-color="#b3b3b3"
         stop-opacity="0.25"
         id="stop9" />
      <stop
         offset="0.53514"
         stop-color="#b3b3b3"
         stop-opacity="0.1"
         id="stop11" />
      <stop
         offset="1"
         stop-color="#b3b3b3"
         stop-opacity="0.05"
         id="stop13" />
    </linearGradient>
  </defs>
  <sodipodi:namedview
     pagecolor="#ffffff"
     bordercolor="#666666"
     borderopacity="1"
     objecttolerance="10"
     gridtolerance="10"
     guidetolerance="10"
     inkscape:pageopacity="0"
     inkscape:pageshadow="2"
     inkscape:window-width="1366"
     inkscape:window-height="714"
     id="namedview59"
     showgrid="false"
     fit-margin-top="0"
     fit-margin-left="0"
     fit-margin-right="0"
     fit-margin-bottom="0"
     inkscape:zoom="0.38867718"
     inkscape:cx="281.0824"
     inkscape:cy="288.19141"
     inkscape:window-x="0"
     inkscape:window-y="0"
     inkscape:window-maximized="1"
     inkscape:current-layer="e8ab07fb-aa66-4eb8-9149-b5abc1630568" />
  <rect
     x="0.27491999"
     y="0.36500999"
     width="643.86163"
     height="412.3576"
     id="rect2"
     style="fill:#e6e6e6" />
  <rect
     x="18.685989"
     y="52.084942"
     width="607.03949"
     height="336.24258"
     id="rect4"
     style="fill:#ffffff" />
  <rect
     width="643.86163"
     height="27.3536"
     id="rect6"
     x="0"
     y="0"
     style="fill:#ff7e36" />
  <circle
     cx="20.327"
     cy="13.98461"
     r="5.0697799"
     id="circle8"
     style="fill:#ffffff" />
  <circle
     cx="39.57061"
     cy="13.98461"
     r="5.0697799"
     id="circle10"
     style="fill:#ffffff" />
  <circle
     cx="58.81422"
     cy="13.98461"
     r="5.0697799"
     id="circle12"
     style="fill:#ffffff" />
  <rect
     x="73.843849"
     y="86.972839"
     width="155.98055"
     height="266.46677"
     id="rect14"
     style="fill:#e6e6e6" />
  <rect
     x="256.7496"
     y="86.972839"
     width="129.9838"
     height="73.347992"
     id="rect16"
     style="fill:#ff7e36" />
  <rect
     x="256.7496"
     y="180.74686"
     width="129.9838"
     height="78.918732"
     id="rect18"
     style="fill:#e6e6e6" />
  <rect
     x="256.7496"
     y="280.09161"
     width="129.9838"
     height="73.347992"
     id="rect20"
     style="fill:#ffe874;fill-opacity:1" />
  <rect
     x="414.58707"
     y="86.972839"
     width="155.98055"
     height="116.12476"
     id="rect22"
     style="fill:#ffe874;fill-opacity:1" />
  <rect
     x="414.58707"
     y="237.31485"
     width="155.98055"
     height="116.12476"
     id="rect24"
     style="fill:#ff7e36" />
  <path
     sodipodi:type="star"
     style="opacity:1;fill:#ff7e36;fill-opacity:1;stroke:none;stroke-width:12.70440292;stroke-linecap:round;stroke-linejoin:round;stroke-miterlimit:4;stroke-dasharray:none;stroke-dashoffset:0;stroke-opacity:1;paint-order:markers fill stroke"
     id="path39"
     sodipodi:sides="3"
     sodipodi:cx="144.17805"
     sodipodi:cy="220.20622"
     sodipodi:r1="30.624294"
     sodipodi:r2="15.312147"
     sodipodi:arg1="0"
     sodipodi:arg2="1.0471976"
     inkscape:flatsided="false"
     inkscape:rounded="0"
     inkscape:randomized="0"
     d="m 174.80235,220.20622 -22.96822,13.26071 -22.96822,13.26071 0,-26.52142 0,-26.52141 22.96822,13.2607 z"
     inkscape:transform-center-x="-7.6560667"
     inkscape:transform-center-y="2.5062915e-06" />
  <path
     inkscape:transform-center-y="1.0646331e-05"
     inkscape:transform-center-x="-4.1111373"
     d="m 334.0749,220.20622 -12.3334,7.12069 -12.33339,7.12069 v -14.24138 -14.24138 l 12.33339,7.12069 z"
     inkscape:randomized="0"
     inkscape:rounded="0"
     inkscape:flatsided="false"
     sodipodi:arg2="1.0471976"
     sodipodi:arg1="0"
     sodipodi:r2="8.2222633"
     sodipodi:r1="16.444527"
     sodipodi:cy="220.20622"
     sodipodi:cx="317.63037"
     sodipodi:sides="3"
     id="path846"
     style="opacity:1;fill:#ff7e36;fill-opacity:1;stroke:none;stroke-width:6.82196617;stroke-linecap:round;stroke-linejoin:round;stroke-miterlimit:4;stroke-dasharray:none;stroke-dashoffset:0;stroke-opacity:1;paint-order:markers fill stroke"
     sodipodi:type="star" />
  <path
     sodipodi:type="star"
     style="opacity:1;fill:#112d38;fill-opacity:1;stroke:none;stroke-width:6.82196617;stroke-linecap:round;stroke-linejoin:round;stroke-miterlimit:4;stroke-dasharray:none;stroke-dashoffset:0;stroke-opacity:1;paint-order:markers fill stroke"
     id="path848"
     sodipodi:sides="3"
     sodipodi:cx="317.63037"
     sodipodi:cy="316.76562"
     sodipodi:r1="16.444527"
     sodipodi:r2="8.2222633"
     sodipodi:arg1="0"
     sodipodi:arg2="1.0471976"
     inkscape:flatsided="false"
     inkscape:rounded="0"
     inkscape:randomized="0"
     d="m 334.0749,316.76562 -12.3334,7.12069 -12.33339,7.12069 v -14.24138 -14.24137 l 12.33339,7.12069 z"
     inkscape:transform-center-x="-4.1111373"
     inkscape:transform-center-y="1.0646331e-05" />
  <path
     inkscape:transform-center-y="1.0646331e-05"
     inkscape:transform-center-x="-4.1111373"
     d="m 334.0749,123.64684 -12.3334,7.12069 -12.33339,7.12069 v -14.24138 -14.24137 l 12.33339,7.12068 z"
     inkscape:randomized="0"
     inkscape:rounded="0"
     inkscape:flatsided="false"
     sodipodi:arg2="1.0471976"
     sodipodi:arg1="0"
     sodipodi:r2="8.2222633"
     sodipodi:r1="16.444527"
     sodipodi:cy="123.64684"
     sodipodi:cx="317.63037"
     sodipodi:sides="3"
     id="path850"
     style="opacity:1;fill:#e6e6e6;fill-opacity:1;stroke:none;stroke-width:6.82196617;stroke-linecap:round;stroke-linejoin:round;stroke-miterlimit:4;stroke-dasharray:none;stroke-dashoffset:0;stroke-opacity:1;paint-order:markers fill stroke"
     sodipodi:type="star" />
  <path
     inkscape:transform-center-x="-5.7822341"
     d="m 509.92404,145.03522 -17.3467,10.01512 -17.3467,10.01512 v -20.03024 -20.03025 l 17.3467,10.01513 z"
     inkscape:randomized="0"
     inkscape:rounded="0"
     inkscape:flatsided="false"
     sodipodi:arg2="1.0471976"
     sodipodi:arg1="0"
     sodipodi:r2="11.564466"
     sodipodi:r1="23.128933"
     sodipodi:cy="145.03522"
     sodipodi:cx="486.7951"
     sodipodi:sides="3"
     id="path852"
     style="opacity:1;fill:#112d38;fill-opacity:1;stroke:none;stroke-width:9.59497356;stroke-linecap:round;stroke-linejoin:round;stroke-miterlimit:4;stroke-dasharray:none;stroke-dashoffset:0;stroke-opacity:1;paint-order:markers fill stroke"
     sodipodi:type="star" />
  <path
     sodipodi:type="star"
     style="opacity:1;fill:#e6e6e6;fill-opacity:1;stroke:none;stroke-width:9.59497356;stroke-linecap:round;stroke-linejoin:round;stroke-miterlimit:4;stroke-dasharray:none;stroke-dashoffset:0;stroke-opacity:1;paint-order:markers fill stroke"
     id="path854"
     sodipodi:sides="3"
     sodipodi:cx="486.7951"
     sodipodi:cy="295.37723"
     sodipodi:r1="23.128933"
     sodipodi:r2="11.564466"
     sodipodi:arg1="0"
     sodipodi:arg2="1.0471976"
     inkscape:flatsided="false"
     inkscape:rounded="0"
     inkscape:randomized="0"
     d="m 509.92404,295.37723 -17.3467,10.01512 -17.3467,10.01512 v -20.03024 -20.03025 l 17.3467,10.01513 z"
     inkscape:transform-center-x="-5.7822341" />
  <g
     id="g886"
     transform="matrix(2.06699,0,0,2.06699,-1251.2015,856.91166)">
    <path
       style="fill:url(#e7b3f2b9-2797-469d-a8e7-bdddf2d3c493)"
       inkscape:connector-curvature="0"
       id="path34"
       d="m 939.29275,-317.55861 a 46.319,46.319 0 1 0 -7.57811,70.55358 l 33.4839,34.82841 a 2.25386,2.25386 0 0 0 3.18682,0.0627 l 8.34443,-8.02231 a 2.25386,2.25386 0 0 0 0.0627,-3.18681 l -33.4839,-34.82842 a 46.32213,46.32213 0 0 0 -4.01586,-59.40718 z m -10.42905,55.9852 a 33.13094,33.13094 0 1 1 0.922,-46.84515 33.131,33.131 0 0 1 -0.922,46.84515 z" />
    <path
       style="fill:url(#linearGradient887)"
       inkscape:connector-curvature="0"
       id="path36"
       d="m 881.36328,-294.66657 c -3.72547,0 -3.73167,5.78987 0,5.78987 3.72548,0 3.73168,-5.78987 0,-5.78987 z" />
    <path
       style="fill:url(#febfb89e-07b1-4842-b918-627d114e5328)"
       inkscape:connector-curvature="0"
       id="path38"
       d="m 907.33473,-313.21472 a 27.82923,27.82923 0 0 0 -24.00514,12.39878 c -1.58285,2.47751 2.91112,4.66665 4.48548,2.2024 4.01726,-6.28806 11.65182,-10.28019 19.90217,-10.07359 a 25.35931,25.35931 0 0 1 20.6949,12.03672 c 1.58209,2.60731 5.72583,0.2365 4.15387,-2.354 -5.05404,-8.32883 -14.8713,-13.97578 -25.23128,-14.21031 z" />
    <path
       inkscape:connector-curvature="0"
       style="fill:#112d38;fill-opacity:1"
       id="path40"
       d="m 939.29275,-322.65004 a 46.319,46.319 0 1 0 -7.57811,70.55357 l 33.4839,34.82842 a 2.25387,2.25387 0 0 0 3.18682,0.0627 l 8.34443,-8.0223 a 2.25387,2.25387 0 0 0 0.0627,-3.18682 l -33.4839,-34.82842 a 46.32211,46.32211 0 0 0 -4.01586,-59.40717 z m -10.42905,55.9852 a 33.13094,33.13094 0 1 1 0.922,-46.84516 33.131,33.131 0 0 1 -0.922,46.84516 z" />
    <path
       inkscape:connector-curvature="0"
       style="fill:#112d38;fill-opacity:1"
       id="path42"
       d="m 881.36328,-299.75801 c -3.72547,0 -3.73167,5.78988 0,5.78988 3.72548,0 3.73168,-5.78988 0,-5.78988 z" />
    <path
       inkscape:connector-curvature="0"
       style="fill:#112d38;fill-opacity:1"
       id="path44"
       d="m 907.33473,-318.30613 a 27.82923,27.82923 0 0 0 -24.00514,12.39878 c -1.58285,2.47751 2.91112,4.66665 4.48548,2.2024 4.01726,-6.28806 11.65182,-10.28019 19.90217,-10.07358 a 25.3593,25.3593 0 0 1 20.6949,12.03671 c 1.58209,2.60731 5.72583,0.2365 4.15387,-2.354 -5.05404,-8.32886 -14.8713,-13.97581 -25.23128,-14.21031 z" />
  </g>
</svg>
