<?xml version="1.0" encoding="UTF-8" standalone="no"?>
<svg
   xmlns:dc="http://purl.org/dc/elements/1.1/"
   xmlns:cc="http://creativecommons.org/ns#"
   xmlns:rdf="http://www.w3.org/1999/02/22-rdf-syntax-ns#"
   xmlns:svg="http://www.w3.org/2000/svg"
   xmlns="http://www.w3.org/2000/svg"
   xmlns:xlink="http://www.w3.org/1999/xlink"
   xmlns:sodipodi="http://sodipodi.sourceforge.net/DTD/sodipodi-0.dtd"
   xmlns:inkscape="http://www.inkscape.org/namespaces/inkscape"
   id="f6245ee5-e739-4f07-8284-f5c00440f05d"
   data-name="Layer 1"
   width="871.90857"
   height="698.04285"
   viewBox="0 0 871.90856 698.04285"
   version="1.1"
   sodipodi:docname="search-doramas.svg"
   inkscape:version="0.92.3 (2405546, 2018-03-11)">
  <metadata
     id="metadata57">
    <rdf:RDF>
      <cc:Work
         rdf:about="">
        <dc:format>image/svg+xml</dc:format>
        <dc:type
           rdf:resource="http://purl.org/dc/dcmitype/StillImage" />
        <dc:title>Search</dc:title>
      </cc:Work>
    </rdf:RDF>
  </metadata>
  <sodipodi:namedview
     pagecolor="#ffffff"
     bordercolor="#666666"
     borderopacity="1"
     objecttolerance="10"
     gridtolerance="10"
     guidetolerance="10"
     inkscape:pageopacity="0"
     inkscape:pageshadow="2"
     inkscape:window-width="1366"
     inkscape:window-height="714"
     id="namedview55"
     showgrid="false"
     inkscape:zoom="0.55942744"
     inkscape:cx="300.71288"
     inkscape:cy="398.88655"
     inkscape:window-x="0"
     inkscape:window-y="0"
     inkscape:window-maximized="1"
     inkscape:current-layer="f6245ee5-e739-4f07-8284-f5c00440f05d"
     fit-margin-top="0"
     fit-margin-left="0"
     fit-margin-right="0"
     fit-margin-bottom="0" />
  <defs
     id="defs24">
    <linearGradient
       id="faa263ba-4d93-43f3-8f6b-5c0bfeed2f5a"
       x1="435.95428"
       y1="161.22673"
       x2="435.95428"
       gradientUnits="userSpaceOnUse">
      <stop
         offset="0"
         stop-color="gray"
         stop-opacity="0.25"
         id="stop2" />
      <stop
         offset="0.53514"
         stop-color="gray"
         stop-opacity="0.12"
         id="stop4" />
      <stop
         offset="1"
         stop-color="gray"
         stop-opacity="0.1"
         id="stop6" />
    </linearGradient>
    <linearGradient
       id="e7b3f2b9-2797-469d-a8e7-bdddf2d3c493"
       x1="895.45569"
       y1="298.73532"
       x2="895.45569"
       y2="178.44409"
       gradientUnits="userSpaceOnUse"
       gradientTransform="translate(-164.04572,-151.70001)">
      <stop
         offset="0"
         stop-color="#b3b3b3"
         stop-opacity="0.25"
         id="stop9" />
      <stop
         offset="0.53514"
         stop-color="#b3b3b3"
         stop-opacity="0.1"
         id="stop11" />
      <stop
         offset="1"
         stop-color="#b3b3b3"
         stop-opacity="0.05"
         id="stop13" />
    </linearGradient>
    <linearGradient
       id="b8dc7ddd-0e76-4866-9241-0076e20120d3"
       x1="858.28284"
       y1="221.34343"
       x2="858.28284"
       y2="215.55356"
       gradientUnits="userSpaceOnUse">
      <stop
         offset="0"
         stop-opacity="0.12"
         id="stop16" />
      <stop
         offset="0.55135"
         stop-opacity="0.09"
         id="stop18" />
      <stop
         offset="1"
         stop-opacity="0.02"
         id="stop20" />
    </linearGradient>
    <linearGradient
       id="febfb89e-07b1-4842-b918-627d114e5328"
       x1="884.87592"
       y1="214.70119"
       x2="884.87592"
       y2="196.99805"
       xlink:href="#b8dc7ddd-0e76-4866-9241-0076e20120d3"
       gradientTransform="translate(-164.04572,-151.70001)" />
    <linearGradient
       inkscape:collect="always"
       xlink:href="#b8dc7ddd-0e76-4866-9241-0076e20120d3"
       id="linearGradient887"
       gradientUnits="userSpaceOnUse"
       x1="858.28284"
       y1="221.34343"
       x2="858.28284"
       y2="215.55356"
       gradientTransform="translate(-164.04572,-151.70001)" />
  </defs>
  <title
     id="title26">Search</title>
  <rect
     style="opacity:1;fill:#f3f3f3;fill-opacity:1;stroke:none;stroke-width:9.9670496;stroke-linecap:round;stroke-linejoin:round;stroke-miterlimit:4;stroke-dasharray:none;stroke-dashoffset:0;stroke-opacity:1;paint-order:markers fill stroke"
     id="rect844"
     width="871.90857"
     height="698.04285"
     x="0"
     y="0" />
  <rect
     width="871.90857"
     height="161.22673"
     id="rect28"
     x="0"
     y="0"
     style="fill:url(#faa263ba-4d93-43f3-8f6b-5c0bfeed2f5a)" />
  <rect
     x="5.0914402"
     y="5.2772498"
     width="860.45282"
     height="147.3786"
     id="rect30"
     style="fill:#ffffff" />
  <rect
     x="57.93932"
     y="35.364922"
     width="500.19403"
     height="87.713211"
     id="rect32"
     style="fill:#ffe874;fill-opacity:1" />
  <path
     d="m 752.16657,40.96151 a 46.319,46.319 0 1 0 -7.57811,70.55358 l 33.4839,34.82841 a 2.25386,2.25386 0 0 0 3.18682,0.0627 l 8.34443,-8.02231 a 2.25386,2.25386 0 0 0 0.0627,-3.18681 l -33.4839,-34.82842 a 46.32213,46.32213 0 0 0 -4.01586,-59.40718 z m -10.42905,55.9852 a 33.13094,33.13094 0 1 1 0.922,-46.84515 33.131,33.131 0 0 1 -0.922,46.84515 z"
     id="path34"
     inkscape:connector-curvature="0"
     style="fill:url(#e7b3f2b9-2797-469d-a8e7-bdddf2d3c493)" />
  <path
     d="m 694.2371,63.85355 c -3.72547,0 -3.73167,5.78987 0,5.78987 3.72548,0 3.73168,-5.78987 0,-5.78987 z"
     id="path36"
     inkscape:connector-curvature="0"
     style="fill:url(#linearGradient887)" />
  <path
     d="m 720.20855,45.3054 a 27.82923,27.82923 0 0 0 -24.00514,12.39878 c -1.58285,2.47751 2.91112,4.66665 4.48548,2.2024 4.01726,-6.28806 11.65182,-10.28019 19.90217,-10.07359 a 25.35931,25.35931 0 0 1 20.6949,12.03672 c 1.58209,2.60731 5.72583,0.2365 4.15387,-2.354 -5.05404,-8.32883 -14.8713,-13.97578 -25.23128,-14.21031 z"
     id="path38"
     inkscape:connector-curvature="0"
     style="fill:url(#febfb89e-07b1-4842-b918-627d114e5328)" />
  <path
     d="m 752.16657,35.87008 a 46.319,46.319 0 1 0 -7.57811,70.55357 l 33.4839,34.82842 a 2.25387,2.25387 0 0 0 3.18682,0.0627 l 8.34443,-8.0223 a 2.25387,2.25387 0 0 0 0.0627,-3.18682 l -33.4839,-34.82842 a 46.32211,46.32211 0 0 0 -4.01586,-59.40717 z m -10.42905,55.9852 a 33.13094,33.13094 0 1 1 0.922,-46.84516 33.131,33.131 0 0 1 -0.922,46.84516 z"
     id="path40"
     style="fill:#112d38;fill-opacity:1"
     inkscape:connector-curvature="0" />
  <path
     d="m 694.2371,58.76211 c -3.72547,0 -3.73167,5.78988 0,5.78988 3.72548,0 3.73168,-5.78988 0,-5.78988 z"
     id="path42"
     style="fill:#112d38;fill-opacity:1"
     inkscape:connector-curvature="0" />
  <path
     d="m 720.20855,40.21399 a 27.82923,27.82923 0 0 0 -24.00514,12.39878 c -1.58285,2.47751 2.91112,4.66665 4.48548,2.2024 4.01726,-6.28806 11.65182,-10.28019 19.90217,-10.07358 a 25.3593,25.3593 0 0 1 20.6949,12.03671 c 1.58209,2.60731 5.72583,0.2365 4.15387,-2.354 -5.05404,-8.32886 -14.8713,-13.97581 -25.23128,-14.21031 z"
     id="path44"
     style="fill:#112d38;fill-opacity:1"
     inkscape:connector-curvature="0" />
  <rect
     x="57.93932"
     y="218.60001"
     width="732.35608"
     height="46.260883"
     id="rect16"
     style="fill:#ff7e36;fill-opacity:0.93333333;stroke-width:2.93836331" />
  <rect
     x="57.93932"
     y="311.1218"
     width="732.35608"
     height="46.260883"
     id="rect1024"
     style="fill:#ff7e36;fill-opacity:0.93333333;stroke-width:2.93836331" />
  <rect
     x="57.93932"
     y="403.64359"
     width="732.35608"
     height="46.260883"
     id="rect1028"
     style="fill:#ff7e36;fill-opacity:0.93333333;stroke-width:2.93836331" />
  <rect
     style="fill:#ff7e36;fill-opacity:0.93333333;stroke-width:2.93836331"
     id="rect1032"
     height="46.260883"
     width="732.35608"
     y="496.16537"
     x="57.93932" />
  <rect
     style="fill:#ff7e36;fill-opacity:0.93333333;stroke-width:2.93836331"
     id="rect1036"
     height="46.260883"
     width="732.35608"
     y="588.68713"
     x="57.93932" />
</svg>
